<?xml version="1.0" encoding="us-ascii" standalone="no"?><svg xmlns="http://www.w3.org/2000/svg" xmlns:xlink="http://www.w3.org/1999/xlink" contentStyleType="text/css" height="1056px" preserveAspectRatio="none" style="width:1052px;height:1056px;background:#FFFFFF;" version="1.1" viewBox="0 0 1052 1056" width="1052px" zoomAndPan="magnify"><defs/><g><text fill="#000000" font-family="sans-serif" font-size="14" font-weight="bold" lengthAdjust="spacing" textLength="278" x="388" y="29.5332">Application startup and monitoring start</text><rect fill="#FFFFFF" height="60.7031" style="stroke:#181818;stroke-width:1.0;" width="10" x="160.5" y="153.5703"/><rect fill="#FFFFFF" height="671.2188" style="stroke:#181818;stroke-width:1.0;" width="10" x="160.5" y="277.9766"/><rect fill="#FFFFFF" height="30.3516" style="stroke:#181818;stroke-width:1.0;" width="10" x="321.5" y="183.9219"/><rect fill="#FFFFFF" height="30.3516" style="stroke:#181818;stroke-width:1.0;" width="10" x="412" y="329.1641"/><rect fill="#FFFFFF" height="91.0547" style="stroke:#181818;stroke-width:1.0;" width="10" x="490" y="389.8672"/><rect fill="#FFFFFF" height="286.1641" style="stroke:#181818;stroke-width:1.0;" width="10" x="490" y="632.6797"/><rect fill="#FFFFFF" height="30.3516" style="stroke:#181818;stroke-width:1.0;" width="10" x="658" y="420.2188"/><rect fill="#FFFFFF" height="30.3516" style="stroke:#181818;stroke-width:1.0;" width="10" x="762.5" y="511.2734"/><rect fill="#FFFFFF" height="30.3516" style="stroke:#181818;stroke-width:1.0;" width="10" x="876.5" y="663.0313"/><rect fill="#FFFFFF" height="30.3516" style="stroke:#181818;stroke-width:1.0;" width="10" x="876.5" y="723.7344"/><rect fill="#FFFFFF" height="30.3516" style="stroke:#181818;stroke-width:1.0;" width="10" x="876.5" y="784.4375"/><rect fill="none" height="727.9219" style="stroke:#000000;stroke-width:1.5;" width="1035" x="10" y="229.2734"/><line style="stroke:#181818;stroke-width:0.5;stroke-dasharray:5.0,5.0;" x1="37" x2="37" y1="121.2188" y2="974.1953"/><line style="stroke:#181818;stroke-width:0.5;stroke-dasharray:5.0,5.0;" x1="165.5" x2="165.5" y1="121.2188" y2="974.1953"/><line style="stroke:#181818;stroke-width:0.5;stroke-dasharray:5.0,5.0;" x1="326.5" x2="326.5" y1="121.2188" y2="974.1953"/><line style="stroke:#181818;stroke-width:0.5;stroke-dasharray:5.0,5.0;" x1="416.5" x2="416.5" y1="121.2188" y2="974.1953"/><line style="stroke:#181818;stroke-width:0.5;stroke-dasharray:5.0,5.0;" x1="494.5" x2="494.5" y1="121.2188" y2="974.1953"/><line style="stroke:#181818;stroke-width:0.5;stroke-dasharray:5.0,5.0;" x1="663" x2="663" y1="121.2188" y2="974.1953"/><line style="stroke:#181818;stroke-width:0.5;stroke-dasharray:5.0,5.0;" x1="767" x2="767" y1="121.2188" y2="974.1953"/><line style="stroke:#181818;stroke-width:0.5;stroke-dasharray:5.0,5.0;" x1="881" x2="881" y1="121.2188" y2="974.1953"/><line style="stroke:#181818;stroke-width:0.5;stroke-dasharray:5.0,5.0;" x1="992" x2="992" y1="121.2188" y2="974.1953"/><text fill="#000000" font-family="sans-serif" font-size="14" lengthAdjust="spacing" textLength="29" x="20" y="118.1426">User</text><ellipse cx="37.5" cy="52.1094" fill="#E2E2F0" rx="8" ry="8" style="stroke:#181818;stroke-width:0.5;"/><path d="M37.5,60.1094 L37.5,87.1094 M24.5,68.1094 L50.5,68.1094 M37.5,87.1094 L24.5,102.1094 M37.5,87.1094 L50.5,102.1094 " fill="none" style="stroke:#181818;stroke-width:0.5;"/><text fill="#000000" font-family="sans-serif" font-size="14" lengthAdjust="spacing" textLength="29" x="20" y="987.7285">User</text><ellipse cx="37.5" cy="999.3047" fill="#E2E2F0" rx="8" ry="8" style="stroke:#181818;stroke-width:0.5;"/><path d="M37.5,1007.3047 L37.5,1034.3047 M24.5,1015.3047 L50.5,1015.3047 M37.5,1034.3047 L24.5,1049.3047 M37.5,1034.3047 L50.5,1049.3047 " fill="none" style="stroke:#181818;stroke-width:0.5;"/><rect fill="#E2E2F0" height="31.6094" rx="2.5" ry="2.5" style="stroke:#181818;stroke-width:0.5;" width="44" x="143.5" y="88.6094"/><text fill="#000000" font-family="sans-serif" font-size="14" lengthAdjust="spacing" textLength="30" x="150.5" y="110.1426">main</text><rect fill="#E2E2F0" height="31.6094" rx="2.5" ry="2.5" style="stroke:#181818;stroke-width:0.5;" width="44" x="143.5" y="973.1953"/><text fill="#000000" font-family="sans-serif" font-size="14" lengthAdjust="spacing" textLength="30" x="150.5" y="994.7285">main</text><rect fill="#E2E2F0" height="31.6094" rx="2.5" ry="2.5" style="stroke:#181818;stroke-width:0.5;" width="106" x="273.5" y="88.6094"/><text fill="#000000" font-family="sans-serif" font-size="14" lengthAdjust="spacing" textLength="92" x="280.5" y="110.1426">SingleInstance</text><rect fill="#E2E2F0" height="31.6094" rx="2.5" ry="2.5" style="stroke:#181818;stroke-width:0.5;" width="106" x="273.5" y="973.1953"/><text fill="#000000" font-family="sans-serif" font-size="14" lengthAdjust="spacing" textLength="92" x="280.5" y="994.7285">SingleInstance</text><rect fill="#E2E2F0" height="31.6094" rx="2.5" ry="2.5" style="stroke:#181818;stroke-width:0.5;" width="55" x="389.5" y="88.6094"/><text fill="#000000" font-family="sans-serif" font-size="14" lengthAdjust="spacing" textLength="41" x="396.5" y="110.1426">Config</text><rect fill="#E2E2F0" height="31.6094" rx="2.5" ry="2.5" style="stroke:#181818;stroke-width:0.5;" width="55" x="389.5" y="973.1953"/><text fill="#000000" font-family="sans-serif" font-size="14" lengthAdjust="spacing" textLength="41" x="396.5" y="994.7285">Config</text><rect fill="#E2E2F0" height="31.6094" rx="2.5" ry="2.5" style="stroke:#181818;stroke-width:0.5;" width="81" x="454.5" y="88.6094"/><text fill="#000000" font-family="sans-serif" font-size="14" lengthAdjust="spacing" textLength="67" x="461.5" y="110.1426">ViewModel</text><rect fill="#E2E2F0" height="31.6094" rx="2.5" ry="2.5" style="stroke:#181818;stroke-width:0.5;" width="81" x="454.5" y="973.1953"/><text fill="#000000" font-family="sans-serif" font-size="14" lengthAdjust="spacing" textLength="67" x="461.5" y="994.7285">ViewModel</text><rect fill="#E2E2F0" height="31.6094" rx="2.5" ry="2.5" style="stroke:#181818;stroke-width:0.5;" width="96" x="615" y="88.6094"/><text fill="#000000" font-family="sans-serif" font-size="14" lengthAdjust="spacing" textLength="82" x="622" y="110.1426">StatusServer</text><rect fill="#E2E2F0" height="31.6094" rx="2.5" ry="2.5" style="stroke:#181818;stroke-width:0.5;" width="96" x="615" y="973.1953"/><text fill="#000000" font-family="sans-serif" font-size="14" lengthAdjust="spacing" textLength="82" x="622" y="994.7285">StatusServer</text><rect fill="#E2E2F0" height="31.6094" rx="2.5" ry="2.5" style="stroke:#181818;stroke-width:0.5;" width="93" x="721" y="88.6094"/><text fill="#000000" font-family="sans-serif" font-size="14" lengthAdjust="spacing" textLength="79" x="728" y="110.1426">MainWindow</text><rect fill="#E2E2F0" height="31.6094" rx="2.5" ry="2.5" style="stroke:#181818;stroke-width:0.5;" width="93" x="721" y="973.1953"/><text fill="#000000" font-family="sans-serif" font-size="14" lengthAdjust="spacing" textLength="79" x="728" y="994.7285">MainWindow</text><rect fill="#E2E2F0" height="31.6094" rx="2.5" ry="2.5" style="stroke:#181818;stroke-width:0.5;" width="115" x="824" y="88.6094"/><text fill="#000000" font-family="sans-serif" font-size="14" lengthAdjust="spacing" textLength="101" x="831" y="110.1426">MountController</text><rect fill="#E2E2F0" height="31.6094" rx="2.5" ry="2.5" style="stroke:#181818;stroke-width:0.5;" width="115" x="824" y="973.1953"/><text fill="#000000" font-family="sans-serif" font-size="14" lengthAdjust="spacing" textLength="101" x="831" y="994.7285">MountController</text><rect fill="#E2E2F0" height="31.6094" rx="2.5" ry="2.5" style="stroke:#181818;stroke-width:0.5;" width="86" x="949" y="88.6094"/><text fill="#000000" font-family="sans-serif" font-size="14" lengthAdjust="spacing" textLength="72" x="956" y="110.1426">PHD2Client</text><rect fill="#E2E2F0" height="31.6094" rx="2.5" ry="2.5" style="stroke:#181818;stroke-width:0.5;" width="86" x="949" y="973.1953"/><text fill="#000000" font-family="sans-serif" font-size="14" lengthAdjust="spacing" textLength="72" x="956" y="994.7285">PHD2Client</text><rect fill="#FFFFFF" height="60.7031" style="stroke:#181818;stroke-width:1.0;" width="10" x="160.5" y="153.5703"/><rect fill="#FFFFFF" height="671.2188" style="stroke:#181818;stroke-width:1.0;" width="10" x="160.5" y="277.9766"/><rect fill="#FFFFFF" height="30.3516" style="stroke:#181818;stroke-width:1.0;" width="10" x="321.5" y="183.9219"/><rect fill="#FFFFFF" height="30.3516" style="stroke:#181818;stroke-width:1.0;" width="10" x="412" y="329.1641"/><rect fill="#FFFFFF" height="91.0547" style="stroke:#181818;stroke-width:1.0;" width="10" x="490" y="389.8672"/><rect fill="#FFFFFF" height="286.1641" style="stroke:#181818;stroke-width:1.0;" width="10" x="490" y="632.6797"/><rect fill="#FFFFFF" height="30.3516" style="stroke:#181818;stroke-width:1.0;" width="10" x="658" y="420.2188"/><rect fill="#FFFFFF" height="30.3516" style="stroke:#181818;stroke-width:1.0;" width="10" x="762.5" y="511.2734"/><rect fill="#FFFFFF" height="30.3516" style="stroke:#181818;stroke-width:1.0;" width="10" x="876.5" y="663.0313"/><rect fill="#FFFFFF" height="30.3516" style="stroke:#181818;stroke-width:1.0;" width="10" x="876.5" y="723.7344"/><rect fill="#FFFFFF" height="30.3516" style="stroke:#181818;stroke-width:1.0;" width="10" x="876.5" y="784.4375"/><polygon fill="#181818" points="148.5,149.5703,158.5,153.5703,148.5,157.5703,152.5,153.5703" style="stroke:#181818;stroke-width:1.0;"/><line style="stroke:#181818;stroke-width:1.0;" x1="37.5" x2="154.5" y1="153.5703" y2="153.5703"/><text fill="#000000" font-family="sans-serif" font-size="13" lengthAdjust="spacing" textLength="104" x="44.5" y="148.7139">launch application</text><polygon fill="#181818" points="309.5,179.9219,319.5,183.9219,309.5,187.9219,313.5,183.9219" style="stroke:#181818;stroke-width:1.0;"/><line style="stroke:#181818;stroke-width:1.0;" x1="170.5" x2="315.5" y1="183.9219" y2="183.9219"/><text fill="#000000" font-family="sans-serif" font-size="13" lengthAdjust="spacing" textLength="50" x="177.5" y="179.0654">acquire()</text><polygon fill="#181818" points="176.5,210.2734,166.5,214.2734,176.5,218.2734,172.5,214.2734" style="stroke:#181818;stroke-width:1.0;"/><line style="stroke:#181818;stroke-width:1.0;stroke-dasharray:2.0,2.0;" x1="170.5" x2="325.5" y1="214.2734" y2="214.2734"/><text fill="#000000" font-family="sans-serif" font-size="13" lengthAdjust="spacing" textLength="125" x="182.5" y="209.417">acquired: true or false</text><path d="M10,229.2734 L71,229.2734 L71,237.625 L61,247.625 L10,247.625 L10,229.2734 " fill="#EEEEEE" style="stroke:#000000;stroke-width:1.5;"/><rect fill="none" height="727.9219" style="stroke:#000000;stroke-width:1.5;" width="1035" x="10" y="229.2734"/><text fill="#000000" font-family="sans-serif" font-size="13" font-weight="bold" lengthAdjust="spacing" textLength="16" x="25" y="243.7686">alt</text><text fill="#000000" font-family="sans-serif" font-size="11" font-weight="bold" lengthAdjust="spacing" textLength="138" x="86" y="242.6924">[another instance exists]</text><line style="stroke:#181818;stroke-width:1.0;" x1="165.5" x2="212.5" y1="264.9766" y2="264.9766"/><line style="stroke:#181818;stroke-width:1.0;" x1="212.5" x2="212.5" y1="264.9766" y2="277.9766"/><line style="stroke:#181818;stroke-width:1.0;" x1="171.5" x2="212.5" y1="277.9766" y2="277.9766"/><polygon fill="#181818" points="181.5,273.9766,171.5,277.9766,181.5,281.9766,177.5,277.9766" style="stroke:#181818;stroke-width:1.0;"/><text fill="#000000" font-family="sans-serif" font-size="13" lengthAdjust="spacing" textLength="147" x="177.5" y="260.1201">focus_existing_instance()</text><line style="stroke:#000000;stroke-width:1.0;stroke-dasharray:2.0,2.0;" x1="10" x2="1045" y1="291.9766" y2="291.9766"/><text fill="#000000" font-family="sans-serif" font-size="11" font-weight="bold" lengthAdjust="spacing" textLength="81" x="15" y="303.3955">[first instance]</text><polygon fill="#181818" points="400,325.1641,410,329.1641,400,333.1641,404,329.1641" style="stroke:#181818;stroke-width:1.0;"/><line style="stroke:#181818;stroke-width:1.0;" x1="170.5" x2="406" y1="329.1641" y2="329.1641"/><text fill="#000000" font-family="sans-serif" font-size="13" lengthAdjust="spacing" textLength="73" x="177.5" y="324.3076">load_config()</text><polygon fill="#181818" points="181.5,355.5156,171.5,359.5156,181.5,363.5156,177.5,359.5156" style="stroke:#181818;stroke-width:1.0;"/><line style="stroke:#181818;stroke-width:1.0;stroke-dasharray:2.0,2.0;" x1="175.5" x2="416" y1="359.5156" y2="359.5156"/><text fill="#000000" font-family="sans-serif" font-size="13" lengthAdjust="spacing" textLength="34" x="187.5" y="354.6592">config</text><polygon fill="#181818" points="478,385.8672,488,389.8672,478,393.8672,482,389.8672" style="stroke:#181818;stroke-width:1.0;"/><line style="stroke:#181818;stroke-width:1.0;" x1="170.5" x2="484" y1="389.8672" y2="389.8672"/><text fill="#000000" font-family="sans-serif" font-size="13" lengthAdjust="spacing" text-decoration="underline" textLength="17" x="177.5" y="385.0107">init</text><text fill="#000000" font-family="sans-serif" font-size="13" lengthAdjust="spacing" textLength="42" x="194.5" y="385.0107">(config)</text><polygon fill="#181818" points="646,416.2188,656,420.2188,646,424.2188,650,420.2188" style="stroke:#181818;stroke-width:1.0;"/><line style="stroke:#181818;stroke-width:1.0;" x1="500" x2="652" y1="420.2188" y2="420.2188"/><text fill="#000000" font-family="sans-serif" font-size="13" lengthAdjust="spacing" textLength="34" x="507" y="415.3623">start()</text><polygon fill="#181818" points="511,446.5703,501,450.5703,511,454.5703,507,450.5703" style="stroke:#181818;stroke-width:1.0;"/><line style="stroke:#181818;stroke-width:1.0;stroke-dasharray:2.0,2.0;" x1="505" x2="662" y1="450.5703" y2="450.5703"/><text fill="#000000" font-family="sans-serif" font-size="13" lengthAdjust="spacing" textLength="48" x="517" y="445.7139">listening</text><polygon fill="#181818" points="181.5,476.9219,171.5,480.9219,181.5,484.9219,177.5,480.9219" style="stroke:#181818;stroke-width:1.0;"/><line style="stroke:#181818;stroke-width:1.0;stroke-dasharray:2.0,2.0;" x1="175.5" x2="494" y1="480.9219" y2="480.9219"/><text fill="#000000" font-family="sans-serif" font-size="13" lengthAdjust="spacing" textLength="99" x="187.5" y="476.0654">ViewModel ready</text><polygon fill="#181818" points="750.5,507.2734,760.5,511.2734,750.5,515.2734,754.5,511.2734" style="stroke:#181818;stroke-width:1.0;"/><line style="stroke:#181818;stroke-width:1.0;" x1="170.5" x2="756.5" y1="511.2734" y2="511.2734"/><text fill="#000000" font-family="sans-serif" font-size="13" lengthAdjust="spacing" text-decoration="underline" textLength="17" x="177.5" y="506.417">init</text><text fill="#000000" font-family="sans-serif" font-size="13" lengthAdjust="spacing" textLength="71" x="194.5" y="506.417">(ViewModel)</text><polygon fill="#181818" points="181.5,537.625,171.5,541.625,181.5,545.625,177.5,541.625" style="stroke:#181818;stroke-width:1.0;"/><line style="stroke:#181818;stroke-width:1.0;stroke-dasharray:2.0,2.0;" x1="175.5" x2="766.5" y1="541.625" y2="541.625"/><text fill="#000000" font-family="sans-serif" font-size="13" lengthAdjust="spacing" textLength="78" x="187.5" y="536.7686">window ready</text><polygon fill="#181818" points="48.5,567.9766,38.5,571.9766,48.5,575.9766,44.5,571.9766" style="stroke:#181818;stroke-width:1.0;"/><line style="stroke:#181818;stroke-width:1.0;stroke-dasharray:2.0,2.0;" x1="42.5" x2="766.5" y1="571.9766" y2="571.9766"/><text fill="#000000" font-family="sans-serif" font-size="13" lengthAdjust="spacing" textLength="87" x="54.5" y="567.1201">display window</text><polygon fill="#181818" points="755.5,598.3281,765.5,602.3281,755.5,606.3281,759.5,602.3281" style="stroke:#181818;stroke-width:1.0;"/><line style="stroke:#181818;stroke-width:1.0;" x1="37.5" x2="761.5" y1="602.3281" y2="602.3281"/><text fill="#000000" font-family="sans-serif" font-size="13" lengthAdjust="spacing" textLength="59" x="44.5" y="597.4717">click Start</text><polygon fill="#181818" points="511,628.6797,501,632.6797,511,636.6797,507,632.6797" style="stroke:#181818;stroke-width:1.0;"/><line style="stroke:#181818;stroke-width:1.0;" x1="505" x2="766.5" y1="632.6797" y2="632.6797"/><text fill="#000000" font-family="sans-serif" font-size="13" lengthAdjust="spacing" textLength="34" x="517" y="627.8232">start()</text><polygon fill="#181818" points="864.5,659.0313,874.5,663.0313,864.5,667.0313,868.5,663.0313" style="stroke:#181818;stroke-width:1.0;"/><line style="stroke:#181818;stroke-width:1.0;" x1="500" x2="870.5" y1="663.0313" y2="663.0313"/><text fill="#000000" font-family="sans-serif" font-size="13" lengthAdjust="spacing" textLength="54" x="507" y="658.1748">connect()</text><polygon fill="#181818" points="511,689.3828,501,693.3828,511,697.3828,507,693.3828" style="stroke:#181818;stroke-width:1.0;"/><line style="stroke:#181818;stroke-width:1.0;stroke-dasharray:2.0,2.0;" x1="505" x2="880.5" y1="693.3828" y2="693.3828"/><text fill="#000000" font-family="sans-serif" font-size="13" lengthAdjust="spacing" textLength="60" x="517" y="688.5264">connected</text><polygon fill="#181818" points="864.5,719.7344,874.5,723.7344,864.5,727.7344,868.5,723.7344" style="stroke:#181818;stroke-width:1.0;"/><line style="stroke:#181818;stroke-width:1.0;" x1="500" x2="870.5" y1="723.7344" y2="723.7344"/><text fill="#000000" font-family="sans-serif" font-size="13" lengthAdjust="spacing" textLength="102" x="507" y="718.8779">get_side_of_pier()</text><polygon fill="#181818" points="511,750.0859,501,754.0859,511,758.0859,507,754.0859" style="stroke:#181818;stroke-width:1.0;"/><line style="stroke:#181818;stroke-width:1.0;stroke-dasharray:2.0,2.0;" x1="505" x2="880.5" y1="754.0859" y2="754.0859"/><text fill="#000000" font-family="sans-serif" font-size="13" lengthAdjust="spacing" textLength="49" x="517" y="749.2295">pier side</text><polygon fill="#181818" points="864.5,780.4375,874.5,784.4375,864.5,788.4375,868.5,784.4375" style="stroke:#181818;stroke-width:1.0;"/><line style="stroke:#181818;stroke-width:1.0;" x1="500" x2="870.5" y1="784.4375" y2="784.4375"/><text fill="#000000" font-family="sans-serif" font-size="13" lengthAdjust="spacing" textLength="79" x="507" y="779.5811">get_tracking()</text><polygon fill="#181818" points="511,810.7891,501,814.7891,511,818.7891,507,814.7891" style="stroke:#181818;stroke-width:1.0;"/><line style="stroke:#181818;stroke-width:1.0;stroke-dasharray:2.0,2.0;" x1="505" x2="880.5" y1="814.7891" y2="814.7891"/><text fill="#000000" font-family="sans-serif" font-size="13" lengthAdjust="spacing" textLength="79" x="517" y="809.9326">tracking state</text><line style="stroke:#181818;stroke-width:1.0;" x1="990" x2="980" y1="845.1406" y2="841.1406"/><line style="stroke:#181818;stroke-width:1.0;" x1="990" x2="980" y1="845.1406" y2="849.1406"/><line style="stroke:#181818;stroke-width:1.0;" x1="500" x2="991" y1="845.1406" y2="845.1406"/><text fill="#000000" font-family="sans-serif" font-size="13" lengthAdjust="spacing" textLength="124" x="507" y="840.2842">start() [worker thread]</text><line style="stroke:#181818;stroke-width:1.0;" x1="500" x2="542" y1="875.4922" y2="875.4922"/><line style="stroke:#181818;stroke-width:1.0;" x1="542" x2="542" y1="875.4922" y2="888.4922"/><line style="stroke:#181818;stroke-width:1.0;" x1="501" x2="542" y1="888.4922" y2="888.4922"/><polygon fill="#181818" points="511,884.4922,501,888.4922,511,892.4922,507,888.4922" style="stroke:#181818;stroke-width:1.0;"/><text fill="#000000" font-family="sans-serif" font-size="13" lengthAdjust="spacing" textLength="144" x="507" y="870.6357">start maintenance thread</text><polygon fill="#181818" points="755.5,914.8438,765.5,918.8438,755.5,922.8438,759.5,918.8438" style="stroke:#181818;stroke-width:1.0;"/><line style="stroke:#181818;stroke-width:1.0;stroke-dasharray:2.0,2.0;" x1="495" x2="761.5" y1="918.8438" y2="918.8438"/><text fill="#000000" font-family="sans-serif" font-size="13" lengthAdjust="spacing" textLength="80" x="502" y="913.9873">running = true</text><polygon fill="#181818" points="755.5,945.1953,765.5,949.1953,755.5,953.1953,759.5,949.1953" style="stroke:#181818;stroke-width:1.0;"/><line style="stroke:#181818;stroke-width:1.0;" x1="165.5" x2="761.5" y1="949.1953" y2="949.1953"/><text fill="#000000" font-family="sans-serif" font-size="13" lengthAdjust="spacing" textLength="60" x="172.5" y="944.3389">mainloop()</text><!--SRC=[hLN1YXin3BtFLwYtxM4lFGvqeMmFxM6XiBGzb38OZvA8EFRKrcoQlw_ioSpOJXfOs1n2B5jFJzAJycxmQdjGODJ9ZGpXWAoiQiAUxA2yEe0XYtmQ49pddSikmaxrxaXs2njb0ZOD4nk4JyDWI2icPo6myZmEe6mF1sU9dO_laxbHMexmFQ1l1919qw0imq6HBGpFucBmgnKlgx6uUdHsGzl2z8Fm-EHwD2K6Anx3C_gNAjgJHFj9LX8fpMwqBEZidJ6LoxSldpyy6aBBJHFPm_r38jrA3KUhTw3M2iGawKKnJcd5h_YyJAa5fV-CvF7k_Vg-oheymlqIy-pQjy1-Z4qwTwF7_q5bDucKCYmDShoJL6WEW7yfS6X0FZFfATx6wJ5qwLfWkzb1gAE4XGtvm0jCyY-ZvOXJ-wHkJlMTJWV1ANpE7OwswMUMkbxlifmoZpdEeeaMEc5Ct7LtatCLRHLFD2-drB9CGUsau9fh8R9uaniIxuo8aGAYbHBM_2zGCXfBwglDe-fFDKQPnro6LUjP7PQdLJBPO4JxUinO72V3LGgt_UFSjD1J66Jld77IktcWSgvQfcaVwo9BeyOgQdgrApTwMarvKfH5VG5HRuD4ehJLxJqZONzHbojOjqbjaRj0FNPkqms4_WtOHHY8c6_3ZhtIyhUmVGDcCrJi9R-QtaEsd1SvmA-Zyti9nRkerD-NITKIIlAMwKoRSFAwCecvHFreuop3nxI5Np-EqMQS6yuLh5SqsluV]--></g></svg>